<svg xmlns="http://www.w3.org/2000/svg" width="256" height="256" viewBox="0 0 100 100"><rect width="100" height="100" rx="20" fill="#4a90e2"></rect><path fill="#fff" d="M74.93 43.48L74.93 43.48Q74.93 54.46 70.20 61.30Q65.48 68.14 57.92 70.66L57.92 70.66Q61.25 72.46 63.81 73.76Q66.38 75.07 68.58 76.06Q70.79 77.05 72.81 77.86Q74.84 78.67 77.09 79.48L77.09 79.48Q77.27 80.11 77.27 80.51Q77.27 80.92 77.27 81.28L77.27 81.28Q77.27 82.99 76.23 84.02Q75.20 85.06 73.31 85.06L73.31 85.06Q70.43 85.06 65.80 82.58Q61.16 80.11 55.22 76.06L55.22 76.06L49.28 72.01L48.83 72.01Q43.25 72.01 38.48 70.16Q33.71 68.32 30.20 64.76Q26.69 61.21 24.71 55.85Q22.73 50.50 22.73 43.48L22.73 43.48Q22.73 36.46 24.76 31.15Q26.78 25.84 30.29 22.24Q33.80 18.64 38.57 16.79Q43.34 14.95 48.83 14.95L48.83 14.95Q54.32 14.95 59.09 16.79Q63.86 18.64 67.37 22.24Q70.88 25.84 72.91 31.15Q74.93 36.46 74.93 43.48ZM67.46 43.48L67.46 43.48Q67.46 32.68 62.38 26.92Q57.29 21.16 48.83 21.16L48.83 21.16Q44.60 21.16 41.18 22.64Q37.76 24.13 35.33 26.96Q32.90 29.80 31.59 33.94Q30.29 38.08 30.29 43.48L30.29 43.48Q30.29 54.28 35.33 60.04Q40.37 65.80 48.83 65.80L48.83 65.80Q57.38 65.80 62.42 60.04Q67.46 54.28 67.46 43.48Z"></path></svg>